<svg width="512" height="512" viewBox="0 0 512 512" fill="none" xmlns="http://www.w3.org/2000/svg">
  <rect width="512" height="512" rx="110" fill="url(#paint0_linear)"/>
  <circle cx="256" cy="256" r="144" fill="white" fill-opacity="0.18"/>
  <path d="M224 146C224 137.163 231.163 130 240 130H272C280.837 130 288 137.163 288 146V208H350C358.837 208 366 215.163 366 224V256C366 264.837 358.837 272 350 272H288V334C288 342.837 280.837 350 272 350H240C231.163 350 224 342.837 224 334V272H162C153.163 272 146 264.837 146 256V224C146 215.163 153.163 208 162 208H224V146Z" fill="white"/>
  <path d="M161 390C185.855 369.04 218.615 356.4 255 356.4C291.385 356.4 324.145 369.04 349 390" stroke="white" stroke-opacity="0.9" stroke-width="22" stroke-linecap="round"/>
  <defs>
    <linearGradient id="paint0_linear" x1="39" y1="28" x2="479" y2="488" gradientUnits="userSpaceOnUse">
      <stop stop-color="#1882F6"/>
      <stop offset="1" stop-color="#10223D"/>
    </linearGradient>
  </defs>
</svg>
